<?xml version="1.0" encoding="UTF-8" standalone="no"?>
<svg
   xmlns:dc="http://purl.org/dc/elements/1.1/"
   xmlns:cc="http://creativecommons.org/ns#"
   xmlns:rdf="http://www.w3.org/1999/02/22-rdf-syntax-ns#"
   xmlns:svg="http://www.w3.org/2000/svg"
   xmlns="http://www.w3.org/2000/svg"
   xmlns:sodipodi="http://sodipodi.sourceforge.net/DTD/sodipodi-0.dtd"
   xmlns:inkscape="http://www.inkscape.org/namespaces/inkscape"
   version="1.1"
   x="0px"
   y="0px"
   viewBox="0 0 510.21998 570.05999"
   xml:space="preserve"
   id="svg38"
   sodipodi:docname="logo.svg"
   width="510.22"
   height="570.06"
   inkscape:version="1.0.2 (e86c870879, 2021-01-15)"><metadata
   id="metadata44"><rdf:RDF><cc:Work
       rdf:about=""><dc:format>image/svg+xml</dc:format><dc:type
         rdf:resource="http://purl.org/dc/dcmitype/StillImage" /><dc:title /></cc:Work></rdf:RDF></metadata><defs
   id="defs42">
	

		
		
		
		
		
		
		
	</defs><sodipodi:namedview
   pagecolor="#ffffff"
   bordercolor="#666666"
   borderopacity="1"
   objecttolerance="10"
   gridtolerance="10"
   guidetolerance="10"
   inkscape:pageopacity="0"
   inkscape:pageshadow="2"
   inkscape:window-width="1920"
   inkscape:window-height="1080"
   id="namedview40"
   showgrid="false"
   inkscape:zoom="0.42242764"
   inkscape:cx="-970.76136"
   inkscape:cy="618.27414"
   inkscape:window-x="0"
   inkscape:window-y="0"
   inkscape:window-maximized="1"
   inkscape:current-layer="layer3"
   fit-margin-top="0"
   fit-margin-left="0"
   fit-margin-right="0"
   fit-margin-bottom="0"
   inkscape:document-rotation="0" />
<style
   type="text/css"
   id="style2">
	.st0{fill:#004811;}
	.st1{fill:#5CA038;}
	.st2{fill:#9DCDE4;}
	.st3{font-family:'MyriadPro-Regular';}
	.st4{font-size:12px;}
	.st5{fill:#FFFFFF;}
	.st6{fill:none;stroke:#E52525;stroke-width:0.1;stroke-miterlimit:10;}
</style>

<g
   inkscape:groupmode="layer"
   id="layer2"
   inkscape:label="sky"
   style="display:inline"><path
     class="st2"
     d="M 255.12,59.82 C 114.22,59.82 0,174.04 0,314.94 c 0,25.85 3.86,50.79 11.01,74.31 h 0.77 c 70.51,-23.63 145.59,-37.3 223.58,-39.27 6.57,-0.12 13.15,-0.25 19.75,-0.25 6.6,0 13.18,0.13 19.75,0.25 77.99,1.98 153.07,15.64 223.58,39.27 h 0.77 c 7.15,-23.51 11.01,-48.46 11.01,-74.31 C 510.23,174.04 396.01,59.82 255.12,59.82 Z"
     id="path19" /></g><path
   class="st5"
   d="m 255.12,570.06 c 114.96,0 212.14,-76.05 244.03,-180.58 -70.71,-23.77 -146.03,-37.52 -224.27,-39.5 -6.57,-0.12 -13.15,-0.25 -19.75,-0.25 -6.6,0 -13.18,0.13 -19.75,0.25 -78.24,1.98 -153.56,15.73 -224.27,39.5 C 42.98,494 140.15,570.06 255.12,570.06 Z"
   id="path17" /><path
   class="st6"
   d="M 247.09,21.2"
   id="path31" />
<g
   inkscape:groupmode="layer"
   id="layer1"
   inkscape:label="path"
   style="display:inline"><path
     class="st0"
     d="m 454.13,451.7 c -9.9,-87.97 -323.35,-51.53 -325.44,-72.8 -1.37,-13.95 42.3,-23.82 73.63,-28.32 -2.47,0.18 -4.94,0.37 -7.41,0.56 -38.08,4.25 -91.74,11.84 -89.7,30.78 4.79,44.57 234.57,3.16 243.5,70.69 4.58,34.58 -126.84,53.88 -249.31,64.33 43.09,33.26 97.07,53.1 155.72,53.1 72.51,0 137.9,-30.3 184.35,-78.87 10.72,-11.87 16.33,-24.66 14.66,-39.47 z"
     id="path29" /></g><g
   inkscape:groupmode="layer"
   id="layer5"
   inkscape:label="horizon"
   style="display:inline"><g
     id="g27"
     transform="translate(-161.67,-98.25)">
			<path
   class="st0"
   d="m 660.88,487.5 c 0.97,-3.19 1.89,-6.4 2.74,-9.65 -72.91,-18.11 -148.92,-28.39 -227.08,-29.87 78.27,1.98 153.61,15.73 224.34,39.52 z"
   id="path23" />
			<path
   class="st0"
   d="m 172.69,487.5 c 70.73,-23.78 146.07,-37.54 224.34,-39.52 -78.16,1.48 -154.16,11.76 -227.08,29.87 0.85,3.24 1.77,6.45 2.74,9.65 z"
   id="path25" />
		</g></g><g
   inkscape:groupmode="layer"
   id="layer4"
   inkscape:label="leaves"
   style="display:inline"><path
     class="st1"
     d="m 454.52,168.2 c -4.6,-2.68 -10.84,-9.42 -9.19,-17.62 1.65,-8.2 1.53,-13.79 -6.19,-23.21 -4.73,-5.77 -4.3,-11.59 -3.26,-15.24 0.59,-1.2 1.1,-2.44 1.54,-3.72 0.01,-0.01 0.02,-0.04 0.02,-0.04 h -0.01 c 1.09,-3.22 1.7,-6.66 1.7,-10.25 0,-17.72 -14.37,-32.09 -32.09,-32.09 -0.5,0 -0.99,0.05 -1.48,0.07 -0.4,-0.02 -0.81,-0.01 -1.23,0.05 -0.04,0.01 -0.08,0.01 -0.13,0.02 -0.73,0.06 -1.45,0.17 -2.16,0.28 -10.98,1.25 -23.24,-0.24 -27.1,-7.4 C 370.82,51.39 364.36,48.5 355.26,43.96 346.16,39.42 353.4,33.01 338.43,23.05 323.45,13.09 304.77,18.45 288.3,15.77 278.65,14.2 270.97,11.13 266.23,8.85 264.7,7.95 263.13,7.12 261.52,6.34 261.18,6.14 261,6.02 261,6.02 l -0.1,0.02 C 252.71,2.21 243.61,0 233.97,0 c -18.61,0 -35.3,8.03 -46.95,20.76 -0.1,0.08 -0.21,0.15 -0.31,0.24 -11.48,10.01 -16.38,6.63 -32.41,14.68 -16.03,8.05 -12.69,17.23 -21.89,24.13 -9.19,6.89 -27.19,2.3 -42.3,10.34 -15.11,8.04 -11.93,17.92 -16.3,24.13 -4.37,6.2 -19.15,14.94 -28.53,18.98 -9.38,4.04 -17.81,12.43 -15.13,26.58 2.68,14.15 6.89,19.17 12.64,22.23 5.74,3.06 11.09,8.86 16.09,15.7 5,6.85 6.51,14.17 18.77,21.06 12.26,6.89 12.77,22.18 12.77,22.18 L 90.43,221 c -0.19,1.39 -0.31,2.81 -0.31,4.25 0,17.72 14.37,32.09 32.09,32.09 4.28,0 8.36,-0.85 12.09,-2.38 0.02,0 0.03,0 0.05,-0.01 17.25,-4 10.32,10.51 24.49,10.89 14.17,0.38 20.81,-12.19 31.02,-10.72 10.21,1.46 11.87,5.74 31.15,14.87 19.28,9.13 31.73,-1.79 31.73,-1.79 l 6.83,-14.62 c 0,0 10.72,8.04 19.15,9.19 8.43,1.15 22.57,-8.88 35.25,-13.56 12.68,-4.68 27.18,13.18 45.58,9.42 18.41,-3.76 27.17,-15.77 38.66,-22.28 11.49,-6.51 29.49,-1.15 42.48,-6.3 12.99,-5.15 6.82,-17.83 10.1,-25.07 3.28,-7.24 10.55,-1.51 13.68,-16.13 3.14,-14.58 -5.36,-17.97 -9.95,-20.65 z"
     id="path21" /></g><g
   inkscape:groupmode="layer"
   id="layer3"
   inkscape:label="trunk"
   style="display:inline"><path
     class="st0"
     d="m 416.49,141.16 -1.83,-7.75 c 0,0 -37.87,9.23 -83.38,29.43 -5.17,2.29 -10.01,4.52 -14.55,6.66 0.49,-4.64 1.29,-12.11 2.23,-20.69 2.44,-7.76 7.24,-10.67 16.16,-15.2 10.74,-5.45 33.64,-20.21 33.64,-20.21 l -4.86,-6.12 c -14.66,10.72 -35.11,18.65 -42.93,21.46 1.35,-21.54 0.79,-55.72 0.79,-55.72 l -8.35,7.64 c 0,0 0.49,29.03 -3.12,52.23 -3.13,20.09 -5.73,35.92 -13.89,46.66 -12.81,6.66 -21.6,11.9 -26.62,15.06 l -7.17,-78.5 c 12.04,-28.93 37.14,-64.33 37.14,-64.33 l -7.95,-0.92 c 0,0 -19.48,30.8 -31.2,43.3 l -6.42,-70.33 -7.09,-2.63 -3.98,96.17 c -16.77,-12.63 -40.45,-49.3 -40.45,-49.3 l -4.93,5.46 c 0,0 22.38,33.43 34.46,50.63 4.54,6.45 7.68,13.11 9.85,18.91 l -2.47,59.71 -0.05,-0.08 c 0,0 -29.44,-23.12 -49.23,-43.38 -3.37,-3.45 -7.21,-7.65 -11.27,-12.26 l 0.06,-2.28 c 0.84,-27.34 -7.94,-81.12 -7.94,-81.12 l -6.7,-0.18 c 0,0 5.45,42.98 3.55,70.72 -16.92,-20.12 -33.63,-41.6 -33.63,-41.6 l -4.9,4.32 c 0.17,0.51 23.51,31.72 35.65,47.86 8.16,10.85 17.49,23.23 22.72,30.18 -8.51,-1.66 -29.94,-4.12 -52.92,-9.76 l -0.34,-0.75 c -8.4,-19.12 -25.19,-41.86 -25.19,-41.86 l -7.37,-2.61 c 0,0 14.02,22.66 21.07,42.05 -17.45,-5.12 -34.67,-12.27 -46.8,-22.49 v 7.15 c 30.03,27.87 94.91,36.98 110.23,40.9 0.56,0.14 1.12,0.33 1.69,0.53 -28.82,-0.98 -63.34,7.01 -63.34,7.01 l -4.04,10.5 c 0,0 57.3,-13.27 85.88,-3.51 9.24,9.73 17.36,21.47 20.61,26.32 2.17,3.26 3.94,6 5.28,9.82 l -0.09,0.02 c 0.21,0.51 0.42,1.04 0.61,1.58 1.75,5.89 2.65,14.4 2.65,30.14 0,28.11 -1.89,45.75 -2.07,46.67 -0.64,2.8 -1.55,5.08 -2.89,6.17 -3.62,2.96 -4.63,4.78 -5.91,7.5 -1.27,2.72 -2.11,3.58 -4.78,5.14 -2.67,1.56 -5.15,5.4 -7.6,7 -2.45,1.61 -6.81,2.44 -6.81,2.44 l -17.98,7.75 h 0.18 c 15.69,-1.37 31.52,-2.27 47.47,-2.67 6.57,-0.12 13.15,-0.25 19.75,-0.25 6.6,0 13.18,0.13 19.75,0.25 16.72,0.42 33.3,1.39 49.73,2.87 -5.64,-1.93 -18.13,-6.22 -20.58,-7.16 -3.19,-1.21 -6.99,-4.36 -8.75,-5.81 -1.76,-1.45 -3.63,-2.55 -6.05,-3.71 -2.42,-1.16 -3.46,-2.69 -5.47,-6.63 -2.01,-3.94 -6.28,-7.79 -7.82,-10.98 -1.24,-2.58 -1.9,-28.48 -2.2,-41.12 l -0.01,-47.48 c 3.66,-6.71 9.29,-15.14 17.75,-24.01 2.12,-0.28 4.57,-0.21 7.36,0.52 10.82,2.81 29.06,8.97 49.33,19.3 l 1.86,-4.69 c 0,0 -32.36,-17.44 -49.95,-23.34 4.7,-4.11 10.03,-8.23 16.1,-12.23 6.37,-4.19 13.2,-8.16 20.18,-11.87 27.43,4.48 76.69,3.84 76.69,3.84 l 1.41,-6.88 c 0,0 -34.64,-0.64 -61.16,-5.34 32.44,-15.07 63.2,-24.12 63.2,-24.12 z"
     id="path33" /></g></svg>
