<?xml version="1.0" encoding="UTF-8"?>
<svg width="995px" height="995px" viewBox="0 0 995 995" version="1.1" xmlns="http://www.w3.org/2000/svg" xmlns:xlink="http://www.w3.org/1999/xlink">
    <title>pysat2-coloured</title>
    <g id="Page-1" stroke="none" stroke-width="1" fill="none" fill-rule="evenodd">
        <g id="pysat2-coloured" transform="translate(20.000000, 20.000000)">
            <circle id="Oval" stroke="#5A8BBA" stroke-width="40" cx="477.5" cy="477.5" r="477.5"></circle>
            <g id="Group" transform="translate(91.107359, 238.219573)" fill-rule="nonzero">
                <path d="M480.144707,303.314024 C500.863715,244.736949 519.330658,185.258688 536.44636,127.582799 L586.892641,127.582799 C563.921567,202.381218 535.995947,279.432601 507.619914,353.780427 L446.814129,353.780427 C418.888509,279.432601 392.314129,203.282403 368.892641,129.38517 L419.338922,125.780427 C436.905038,183.906909 455.822393,244.286356 476.991815,303.314024 L480.144707,303.314024 Z" id="v" fill="#5A8BBA" transform="translate(477.892641, 239.780427) scale(-1, 1) rotate(-180.000000) translate(-477.892641, -239.780427) "></path>
                <polygon id="T" fill="#5A8BBA" transform="translate(667.892641, 239.780427) scale(-1, 1) translate(-667.892641, -239.780427) " points="694.640009 161.083653 694.640009 353.780427 643.355799 353.780427 643.355799 161.083653 562.892641 161.083653 566.429483 125.780427 772.892641 125.780427 772.892641 161.083653"></polygon>
                <g id="snake2" transform="translate(-0.000000, 0.000000)">
                    <g id="#fefefeff" transform="translate(57.425653, 326.276335)" fill="#FEFEFE">
                        <path d="M0.502970048,0.0176736127 C1.12547997,0.331304565 1.12072798,0.654439485 0.49346608,0.982326387 C-0.124291856,0.65919147 -0.119539872,0.340808533 0.502970048,0.0176736127 Z" id="Path"></path>
                    </g>
                    <g id="#020202ff">
                        <path d="M118.711252,1.22027805 C138.313187,-1.08443425 158.100449,0.151081621 177.621599,2.63636932 C188.004685,3.24937527 198.349754,4.61319472 208.509496,6.86088321 C216.872988,8.77118083 225.483583,9.2273713 233.880339,10.9428376 C244.686351,13.0099507 255.549387,14.8062007 266.326887,17.0206253 C279.993593,19.5676888 293.774347,21.905665 307.013375,26.2537305 C315.300835,29.6276392 324.301093,32.5120936 330.274337,39.5830459 C332.122859,41.3222721 332.617066,44.1354467 334.522611,45.7511213 C342.372889,48.0605856 350.883693,48.5642959 358.192244,52.5369547 C361.266778,54.1953971 364.393583,56.2244944 365.94273,59.5081154 C367.301798,63.0578475 366.646024,67.0210023 365.125389,70.409167 C360.886619,78.1453971 353.378484,83.1492364 346.597403,88.4476987 C343.898276,90.4435321 341.360716,92.6674606 338.523782,94.4732146 C341.812155,89.2365281 347.086857,85.6440281 350.427502,80.4501094 C346.221996,79.5329765 341.579308,78.3069646 337.402314,79.7420638 C331.015647,85.8103475 325.280002,93.0666273 316.873742,96.4785519 C319.95778,91.7550797 323.735607,87.464038 326.368206,82.4554467 C327.147532,81.2104269 326.848157,79.2906253 325.375042,78.7013793 C321.369119,75.9737404 316.203712,76.4631948 311.627552,76.2636114 C297.889566,76.1210519 284.189595,78.9484825 270.465865,77.6226789 C274.362492,80.2600301 278.914893,81.5763297 283.258206,83.27754 C288.219278,85.3208932 293.132829,87.6636213 297.357343,91.0280261 C303.083484,95.551915 309.028216,99.9142369 313.746937,105.540586 C320.076579,112.207619 325.123187,120.609127 333.952373,124.315675 C341.736123,127.409217 350.332462,126.696419 358.510627,126.021637 C350.760141,128.71126 342.235081,129.129435 334.246996,127.347441 C339.455171,130.669078 345.509199,132.241985 351.368395,133.990715 C356.476778,135.51135 361.803752,135.51135 367.068951,135.097927 C358.94781,138.813979 349.467601,137.782798 341.241917,134.979127 C332.094347,131.567203 323.806887,125.88383 317.253901,118.656062 C310.776947,111.523334 304.361768,104.30507 297.219536,97.8186114 C289.754169,90.8664586 280.235945,85.8483634 270.000171,84.774415 C275.559992,95.257292 282.360081,105.041627 289.815945,114.265229 C291.65021,116.669733 293.836123,118.812877 295.43279,121.397957 C292.762175,119.929594 290.45271,117.895744 288.17651,115.895159 C282.246034,110.591945 276.553157,104.965596 271.649109,98.6882245 C266.127304,91.4937206 260.51521,84.2374408 256.803911,75.8977086 C254.675022,75.8644448 252.574645,75.8311809 250.460012,75.8311809 C251.448425,81.1961709 253.852929,86.0717067 256.015081,91.0232741 C258.509873,97.7568356 262.287701,103.896399 266.051272,109.978939 C270.779496,117.553602 276.168246,124.75761 282.512145,131.063492 C285.197016,133.249405 288.29531,135.981796 291.968593,135.94378 C298.364764,134.72252 301.976272,128.768284 304.970022,123.583869 C305.046054,129.324266 301.39653,134.161786 297.27656,137.782798 C306.623712,137.07 313.97028,130.421975 320.703841,124.548522 C316.926014,136.808641 305.316917,145.780387 292.686143,147.215487 C287.843871,147.557629 282.81152,148.237163 278.06904,146.849584 C271.454278,142.368463 267.443603,135.27375 262.487284,129.210219 C256.219417,121.559524 250.189149,113.709246 243.422324,106.486231 C230.886589,92.1447424 218.222552,77.7462305 203.268058,65.8472622 C193.098812,60.0593456 181.152324,57.9162007 169.538474,58.2013198 C161.284278,58.424663 152.844754,57.3507146 144.771133,59.5461313 C130.652988,62.7109527 116.739179,68.0806948 105.386689,77.2330162 C99.4372045,82.3223912 93.9961827,88.3906749 91.1212323,95.7752582 C88.3745854,102.542084 87.0915497,110.12625 88.521897,117.35877 C89.3677501,122.433889 91.6154386,127.100338 93.587512,131.804802 C95.3029783,136.076836 97.8262819,140.03999 101.209695,143.185804 C111.844635,153.412074 123.710339,162.469356 136.792552,169.335973 C144.918445,173.246856 152.878018,177.518889 161.155974,181.120893 C176.899298,187.564584 193.02278,193.143413 209.512165,197.353671 C218.502919,199.591856 227.70276,200.874891 236.722026,202.994276 C254.760558,207.090487 272.841857,212.084822 289.283722,220.757193 C303.772522,228.241568 317.624556,237.237074 329.399972,248.589564 C333.230072,252.904365 337.136203,257.328463 339.602482,262.603165 C344.192899,271.422848 348.892611,280.427858 350.246927,290.42128 C352.413831,302.267977 350.964476,314.404544 348.479189,326.084921 C346.103197,336.249415 343.874516,346.7513 338.295687,355.746806 C329.851411,370.121558 317.348941,382.134574 302.565518,389.875556 C292.339248,395.145506 281.172085,398.182024 270.11897,401.180526 C253.890945,406.326925 236.964377,409.268403 219.914258,409.349187 C209.398117,409.159108 198.720409,410.342352 188.32782,408.256231 C171.367988,405.31 154.322621,402.829465 137.495845,399.175189 C119.271986,395.164514 102.231371,386.734494 87.1533255,375.842947 C80.9852501,371.257282 75.9956668,365.284038 71.7616489,358.916379 C70.25527,356.4501 68.7916589,353.860268 68.3164604,350.971062 C67.0856966,342.745377 67.5751509,333.968463 71.3482263,326.41756 C73.7907462,321.931687 76.3473136,317.350774 80.3484843,314.043393 C89.5150616,306.620794 100.09773,300.932669 111.388445,297.492233 C130.353613,290.378512 150.782393,287.736409 170.96407,288.187848 C181.233107,288.206856 191.611441,288.463463 201.652383,290.834703 C209.407621,292.711737 217.291163,294.246627 224.770786,297.121578 C233.533445,300.215119 241.849417,304.444385 249.885022,309.091826 C254.617998,312.099832 259.427006,315.787371 261.560647,321.171369 C261.997829,322.924852 262.881699,324.877917 262.240181,326.712183 C259.740637,334.125278 253.491778,339.680348 246.511113,342.859425 C240.485597,345.758135 233.83282,346.779812 227.289337,347.763473 C227.602968,346.7513 228.809972,345.473016 227.740776,344.555883 C225.920766,343.054256 223.734853,342.018324 221.520429,341.248502 C212.681738,338.620655 203.581689,337.066756 194.510151,335.508106 C186.455538,334.068254 178.220349,334.191806 170.075449,334.424653 C160.671272,334.814316 150.782393,335.721945 142.466421,340.526201 C140.97905,341.110695 140.760458,342.911697 140.080925,344.113949 C143.169714,345.781895 146.315528,347.364306 149.679933,348.423998 C162.819169,352.097282 176.324308,354.615834 189.972006,355.238344 C199.304903,355.608998 208.66156,356.412084 218.00396,355.832342 C225.868494,355.471191 233.794804,356.136469 241.621322,355.081528 C251.358137,353.484862 261.28028,350.728711 269.287373,344.717451 C276.562661,339.808651 280.549576,330.993721 281.214853,322.444901 C281.804099,316.305338 278.472958,310.911836 275.369913,305.946012 C268.750399,296.404028 260.249099,288.111816 250.269933,282.119564 C241.174635,276.607262 231.627899,271.612927 221.325597,268.780744 C209.66898,265.478115 198.007611,262.123215 186.099139,259.832758 C170.598167,256.321042 155.011659,252.880606 140.076173,247.354048 C127.445399,242.335953 115.118752,236.519524 103.11524,230.151865 C87.1438216,220.837977 71.2341787,211.210457 57.1968176,199.088145 C43.7534545,187.830695 31.3507759,175.133393 21.6994962,160.430754 C10.0238712,143.946121 2.0738017,124.54377 0.443871153,104.30507 C-1.14329155,89.9255658 1.64137115,75.3179666 6.9540894,61.9553872 C9.70548821,55.8348317 12.5424227,49.5812206 17.1233354,44.5726293 C21.8135438,39.4452384 26.4372243,34.189544 31.9780378,29.9507741 C39.0347343,24.585784 46.6284049,19.9193356 54.5499624,15.9514289 C74.7791589,7.02245067 96.7903493,3.08305583 118.711252,1.22027805 M270.998087,35.082917 C277.451282,39.8301491 284.422443,46.2643356 293.08531,45.4042265 C295.751173,45.6988495 297.68523,43.7267761 299.723831,42.4199805 C298.041629,40.0297325 295.442294,38.3902979 292.557839,37.9008436 C285.420359,36.6463198 278.225855,35.6293952 270.998087,35.082917 Z" id="Shape" fill="#F9D45B"></path>
                        <path d="M51.076262,331.801558 C56.46026,327.458244 60.6467581,321.05257 67.6464307,319.156528 C64.5338811,322.302342 60.7703097,324.782877 58.0569267,328.327858 C53.9892283,333.773631 50.2351608,339.784891 49.2277402,346.646756 C47.9542085,355.642262 50.4537521,365.16999 55.8044862,372.488046 C59.458762,376.883631 62.6568473,381.778175 67.3708156,385.161588 C75.5109644,391.158592 83.8221847,397.051052 93.0220259,401.346846 C107.757929,409.216131 123.971699,413.6925 140.042909,417.936022 C155.75772,421.951449 171.824179,424.332193 187.919149,426.204475 C200.744754,427.58255 213.670151,428.129028 226.562284,427.497014 C243.465091,427.739365 260.101788,424.203889 276.458117,420.321518 C289.112651,417.323016 301.044883,411.986538 312.587453,406.09883 C321.915597,401.712748 330.18405,395.402114 337.963048,388.701816 C343.228246,383.9926 348.293861,378.998264 352.466103,373.272123 C355.654685,368.486875 357.968901,363.145645 359.365984,357.566816 C360.359149,359.510377 361.542393,361.392163 362.297958,363.454524 C365.657611,375.087381 369.107552,386.91507 368.893712,399.151429 C368.855697,406.046558 366.270617,412.556776 363.053524,418.539524 C356.196411,430.633324 345.357135,439.918701 333.595974,447.060933 C322.671163,453.585407 311.033554,458.964653 298.877978,462.751985 C269.962155,471.353076 239.910607,475.311479 209.930339,477.906062 C182.468623,480.253542 154.688524,476.489971 128.505091,468.069455 C117.922423,464.942649 107.610617,460.984246 97.3890993,456.835764 C87.8851311,453.057937 78.937145,448.068354 69.7325517,443.649008 C66.4394267,441.962054 62.9609743,440.488939 60.1668077,438.013155 C54.6164902,433.270675 48.2868473,429.350288 43.7059347,423.567123 C38.3932164,417.018889 33.3133454,410.199792 29.4404783,402.691657 C24.6362223,393.035625 24.5079188,381.844703 26.0523136,371.385586 C28.7609446,355.485447 38.9777104,341.980308 51.076262,331.801558 M57.9286231,326.294008 C57.3061132,326.617143 57.3013612,326.935526 57.9191192,327.258661 C58.5463811,326.930774 58.5511331,326.607639 57.9286231,326.294008 Z" id="Shape" fill="#FCE785"></path>
                        <path d="M345.0822,358.779157 C349.610841,371.67129 356.040276,384.073969 365.368421,394.162431 C370.533827,399.608205 375.799026,405.058731 381.981357,409.378284 C405.689006,426.447411 435.68353,434.026826 464.689641,431.57005 C467.41728,431.42749 470.073639,430.785973 472.539919,429.616985 C475.68098,436.421826 480.361685,442.613661 486.629552,446.814415 C490.81605,449.713125 495.781873,451.057937 500.590881,452.540556 C494.8885,454.075447 488.920008,453.980407 483.065564,454.189494 C461.439284,454.754981 439.679948,451.485615 419.265425,444.291112 C408.331109,440.655844 397.910008,435.514197 388.253976,429.236826 C374.58727,420.24132 362.455454,408.513423 354.510137,394.095903 C348.760236,383.270883 343.856189,371.324395 345.0822,358.779157 Z" id="Path" fill="#FCE785" transform="translate(422.741761, 406.515577) scale(-1, 1) translate(-422.741761, -406.515577) "></path>
                    </g>
                </g>
            </g>
        </g>
    </g>
</svg>